<?xml version="1.0" encoding="UTF-8"?>
<svg version="1.1" xmlns="http://www.w3.org/2000/svg" width="225" height="224">
<path d="M0 0 C74.25 0 148.5 0 225 0 C225 73.92 225 147.84 225 224 C150.75 224 76.5 224 0 224 C0 150.08 0 76.16 0 0 Z " fill="#4FB37D" transform="translate(0,0)"/>
<path d="M0 0 C8.58 0 17.16 0 26 0 C26 8.58 26 17.16 26 26 C34.58 26 43.16 26 52 26 C52 17.42 52 8.84 52 0 C60.91 0 69.82 0 79 0 C79 8.58 79 17.16 79 26 C87.25 26 95.5 26 104 26 C104 17.42 104 8.84 104 0 C112.91 0 121.82 0 131 0 C131 8.25 131 16.5 131 25 C142.385 24.505 142.385 24.505 154 24 C153.67 23.01 153.34 22.02 153 21 C148.71 20.34 144.42 19.68 140 19 C140 18.34 140 17.68 140 17 C141.11375 17.061875 142.2275 17.12375 143.375 17.1875 C144.57125 17.125625 145.7675 17.06375 147 17 C149.32038095 14.17431454 149.32038095 14.17431454 148.8125 10.9375 C148.26245502 7.70259047 148.26245502 7.70259047 145 6 C144.67 4.02 144.34 2.04 144 0 C156.54 0 169.08 0 182 0 C182 17.16 182 34.32 182 52 C165.17 52 148.34 52 131 52 C131 60.25 131 68.5 131 77 C126.68745917 77.02682299 122.37508293 77.04675244 118.0625 77.0625 C116.83080078 77.07087891 115.59910156 77.07925781 114.33007812 77.08789062 C113.16025391 77.09111328 111.99042969 77.09433594 110.78515625 77.09765625 C109.15912476 77.10551147 109.15912476 77.10551147 107.50024414 77.11352539 C105 77 105 77 104 76 C103.91273777 74.21928754 103.89300959 72.4351686 103.90234375 70.65234375 C103.90484131 69.68031006 103.90733887 68.70827637 103.90991211 67.70678711 C103.91901611 66.46292236 103.92812012 65.21905762 103.9375 63.9375 C103.958125 59.998125 103.97875 56.05875 104 52 C95.75 52 87.5 52 79 52 C79.0395914 60.18252797 79.0395914 60.18252797 79.09008789 68.36499023 C79.09258545 69.37762939 79.09508301 70.39026855 79.09765625 71.43359375 C79.10289307 72.47572021 79.10812988 73.51784668 79.11352539 74.59155273 C79 77 79 77 78 78 C76.37325222 78.09340434 74.74245949 78.11745171 73.11303711 78.11352539 C72.07203354 78.11344986 71.03102997 78.11337433 69.95848083 78.11329651 C68.8262056 78.10813522 67.69393036 78.10297394 66.52734375 78.09765625 C64.79817467 78.09553383 64.79817467 78.09553383 63.03407288 78.09336853 C59.33518936 78.08775005 55.63636536 78.07519442 51.9375 78.0625 C49.43684983 78.05748738 46.93619871 78.05292406 44.43554688 78.04882812 C38.29032295 78.0386235 32.14522845 78.01905169 26 78 C26 86.58 26 95.16 26 104 C17.42 104 8.84 104 0 104 C0 69.68 0 35.36 0 0 Z " fill="#C2CED4" transform="translate(9,5)"/>
<path d="M0 0 C0.33 0 0.66 0 1 0 C1 8.58 1 17.16 1 26 C9.58 26 18.16 26 27 26 C27 34.58 27 43.16 27 52 C18.42 52 9.84 52 1 52 C1 60.58 1 69.16 1 78 C9.58 78 18.16 78 27 78 C27.020625 82.269375 27.04125 86.53875 27.0625 90.9375 C27.071604 92.28577881 27.08070801 93.63405762 27.09008789 95.02319336 C27.09258545 96.07643799 27.09508301 97.12968262 27.09765625 98.21484375 C27.10289307 99.29886475 27.10812988 100.38288574 27.11352539 101.49975586 C27 104 27 104 26 105 C24.14630389 105.08737645 22.28932459 105.10698153 20.43359375 105.09765625 C19.42095459 105.09515869 18.40831543 105.09266113 17.36499023 105.09008789 C16.06891846 105.08098389 14.77284668 105.07187988 13.4375 105.0625 C9.333125 105.041875 5.22875 105.02125 1 105 C1 113.25 1 121.5 1 130 C9.18252797 129.9604086 9.18252797 129.9604086 17.36499023 129.90991211 C18.37762939 129.90741455 19.39026855 129.90491699 20.43359375 129.90234375 C21.47572021 129.89710693 22.51784668 129.89187012 23.59155273 129.88647461 C26 130 26 130 27 131 C27.09959621 132.84159023 27.13080411 134.68696967 27.1328125 136.53125 C27.13410156 137.65144531 27.13539063 138.77164063 27.13671875 139.92578125 C27.13285156 141.10527344 27.12898438 142.28476563 27.125 143.5 C27.12886719 144.67949219 27.13273437 145.85898438 27.13671875 147.07421875 C27.13542969 148.19441406 27.13414062 149.31460938 27.1328125 150.46875 C27.13168457 151.50451172 27.13055664 152.54027344 27.12939453 153.60742188 C27 156 27 156 26 157 C24.14630389 157.08737645 22.28932459 157.10698153 20.43359375 157.09765625 C19.42095459 157.09515869 18.40831543 157.09266113 17.36499023 157.09008789 C15.42088257 157.07643188 15.42088257 157.07643188 13.4375 157.0625 C9.333125 157.041875 5.22875 157.02125 1 157 C1 165.25 1 173.5 1 182 C9.18252797 181.9604086 9.18252797 181.9604086 17.36499023 181.90991211 C18.37762939 181.90741455 19.39026855 181.90491699 20.43359375 181.90234375 C21.47572021 181.89710693 22.51784668 181.89187012 23.59155273 181.88647461 C26 182 26 182 27 183 C27 191.58 27 200.16 27 209 C1.26 209 -24.48 209 -51 209 C-51 200.42 -51 191.84 -51 183 C-42.42 183 -33.84 183 -25 183 C-25.495 170.13 -25.495 170.13 -26 157 C-34.25 156.67 -42.5 156.34 -51 156 C-51 147.42 -51 138.84 -51 130 C-42.75 130 -34.5 130 -26 130 C-26 121.75 -26 113.5 -26 105 C-34.25 105 -42.5 105 -51 105 C-51 96.09 -51 87.18 -51 78 C-42.42 78 -33.84 78 -25 78 C-25 69.42 -25 60.84 -25 52 C-16.75 52 -8.5 52 0 52 C0 34.84 0 17.68 0 0 Z " fill="#E8E8E8" transform="translate(191,5)"/>
<path d="M0 0 C8.58 0 17.16 0 26 0 C26 8.58 26 17.16 26 26 C34.58 26 43.16 26 52 26 C52 34.91 52 43.82 52 53 C43.42 53 34.84 53 26 53 C26 61.25 26 69.5 26 78 C34.58 78 43.16 78 52 78 C52 70.08 52 62.16 52 54 C60.91 54 69.82 54 79 54 C78.67 70.5 78.34 87 78 104 C69.75 104 61.5 104 53 104 C52.67 104.33 52.34 104.66 52 105 C50.07332493 105.08748207 48.14348139 105.10697334 46.21484375 105.09765625 C45.16159912 105.09515869 44.10835449 105.09266113 43.02319336 105.09008789 C41.67491455 105.08098389 40.32663574 105.07187988 38.9375 105.0625 C34.668125 105.041875 30.39875 105.02125 26 105 C26 113.58 26 122.16 26 131 C8.84 131 -8.32 131 -26 131 C-26 96.35 -26 61.7 -26 26 C-17.42 26 -8.84 26 0 26 C0 17.42 0 8.84 0 0 Z " fill="#B7BFC8" transform="translate(35,83)"/>
<path d="M0 0 C74.25 0 148.5 0 225 0 C225 73.92 225 147.84 225 224 C150.75 224 76.5 224 0 224 C0 150.08 0 76.16 0 0 Z M8 4 C8 73.63 8 143.26 8 215 C77.63 215 147.26 215 219 215 C219 145.37 219 75.74 219 4 C149.37 4 79.74 4 8 4 Z " fill="#FCFCFC" transform="translate(0,0)"/>
<path d="M0 0 C69.63 0 139.26 0 211 0 C211 69.63 211 139.26 211 211 C141.37 211 71.74 211 0 211 C0 141.37 0 71.74 0 0 Z M1 1 C1 69.97 1 138.94 1 210 C69.97 210 138.94 210 210 210 C210 201.42 210 192.84 210 184 C208.95128747 182.72694444 208.95128747 182.72694444 206.59155273 182.88647461 C205.02836304 182.89432983 205.02836304 182.89432983 203.43359375 182.90234375 C202.42095459 182.90484131 201.40831543 182.90733887 200.36499023 182.90991211 C198.42088257 182.92356812 198.42088257 182.92356812 196.4375 182.9375 C190.2809375 182.9684375 190.2809375 182.9684375 184 183 C184 174.75 184 166.5 184 158 C196.4375 158.0625 196.4375 158.0625 200.36499023 158.09008789 C201.88394897 158.09383423 201.88394897 158.09383423 203.43359375 158.09765625 C204.99678345 158.10551147 204.99678345 158.10551147 206.59155273 158.11352539 C208.95128747 158.27305556 208.95128747 158.27305556 210 157 C210.09959621 155.15840977 210.13080411 153.31303033 210.1328125 151.46875 C210.13474609 149.78845703 210.13474609 149.78845703 210.13671875 148.07421875 C210.13285156 146.89472656 210.12898437 145.71523437 210.125 144.5 C210.12886719 143.32050781 210.13273438 142.14101562 210.13671875 140.92578125 C210.13542969 139.80558594 210.13414062 138.68539062 210.1328125 137.53125 C210.13112061 135.97760742 210.13112061 135.97760742 210.12939453 134.39257812 C210.26965153 132.04702177 210.26965153 132.04702177 209 131 C207.14630389 130.91262355 205.28932459 130.89301847 203.43359375 130.90234375 C202.42095459 130.90484131 201.40831543 130.90733887 200.36499023 130.90991211 C198.42088257 130.92356812 198.42088257 130.92356812 196.4375 130.9375 C190.2809375 130.9684375 190.2809375 130.9684375 184 131 C184 122.75 184 114.5 184 106 C196.4375 106.0625 196.4375 106.0625 200.36499023 106.09008789 C201.88394897 106.09383423 201.88394897 106.09383423 203.43359375 106.09765625 C204.99678345 106.10551147 204.99678345 106.10551147 206.59155273 106.11352539 C208.95128747 106.27305556 208.95128747 106.27305556 210 105 C210.08748207 103.07332493 210.10697334 101.14348139 210.09765625 99.21484375 C210.09390991 97.63497681 210.09390991 97.63497681 210.09008789 96.02319336 C210.08098389 94.67491455 210.07187988 93.32663574 210.0625 91.9375 C210.0315625 85.5334375 210.0315625 85.5334375 210 79 C201.42 79 192.84 79 184 79 C184 70.42 184 61.84 184 53 C192.58 53 201.16 53 210 53 C210 44.42 210 35.84 210 27 C201.42 27 192.84 27 184 27 C184 18.42 184 9.84 184 1 C171.13 1 158.26 1 145 1 C146.23326352 7.53379704 146.23326352 7.53379704 148.6875 9.625 C149.120625 10.07875 149.55375 10.5325 150 11 C149.73904456 13.67479327 149.1995243 15.60095141 148 18 C145.69 18 143.38 18 141 18 C141 18.66 141 19.32 141 20 C145.29 20.66 149.58 21.32 154 22 C154.33 22.99 154.66 23.98 155 25 C143.615 25.495 143.615 25.495 132 26 C132 17.75 132 9.5 132 1 C123.09 1 114.18 1 105 1 C105 9.58 105 18.16 105 27 C96.75 27 88.5 27 80 27 C80 18.42 80 9.84 80 1 C71.09 1 62.18 1 53 1 C53 9.58 53 18.16 53 27 C44.42 27 35.84 27 27 27 C27 18.42 27 9.84 27 1 C18.42 1 9.84 1 1 1 Z " fill="#42413E" transform="translate(8,4)"/>
<path d="M0 0 C8.58 0 17.16 0 26 0 C26 8.58 26 17.16 26 26 C43.16 26 60.32 26 78 26 C78 34.58 78 43.16 78 52 C69.42 52 60.84 52 52 52 C52 60.58 52 69.16 52 78 C43.42 78 34.84 78 26 78 C26 86.58 26 95.16 26 104 C17.42 104 8.84 104 0 104 C0 69.68 0 35.36 0 0 Z " fill="#7286B8" transform="translate(9,5)"/>
<path d="M0 0 C0.33 0 0.66 0 1 0 C1 7.92 1 15.84 1 24 C2.79308594 23.98839844 4.58617187 23.97679687 6.43359375 23.96484375 C8.76822813 23.95546771 11.10286363 23.94636731 13.4375 23.9375 C14.62150391 23.92912109 15.80550781 23.92074219 17.02539062 23.91210938 C18.15009766 23.90888672 19.27480469 23.90566406 20.43359375 23.90234375 C21.47572021 23.89710693 22.51784668 23.89187012 23.59155273 23.88647461 C26 24 26 24 27 25 C27.08748207 26.92667507 27.10697334 28.85651861 27.09765625 30.78515625 C27.09515869 31.83840088 27.09266113 32.89164551 27.09008789 33.97680664 C27.08098389 35.32508545 27.07187988 36.67336426 27.0625 38.0625 C27.041875 42.331875 27.02125 46.60125 27 51 C18.42 51 9.84 51 1 51 C1 59.58 1 68.16 1 77 C-25.07 77 -51.14 77 -78 77 C-78 68.42 -78 59.84 -78 51 C-69.42 51 -60.84 51 -52 51 C-52 42.42 -52 33.84 -52 25 C-51.67 25 -51.34 25 -51 25 C-51 33.25 -51 41.5 -51 50 C-42.75 50 -34.5 50 -26 50 C-26 33.83 -26 17.66 -26 1 C-25.67 1 -25.34 1 -25 1 C-25 8.59 -25 16.18 -25 24 C-16.75 24 -8.5 24 0 24 C0 16.08 0 8.16 0 0 Z " fill="#EBEBEC" transform="translate(139,137)"/>
<path d="M0 0 C0.33 0 0.66 0 1 0 C1 69.63 1 139.26 1 211 C0.67 211 0.34 211 0 211 C-0.33 202.09 -0.66 193.18 -1 184 C-9.25 183.67 -17.5 183.34 -26 183 C-26 174.75 -26 166.5 -26 158 C-13.625 157.505 -13.625 157.505 -1 157 C-1 148.75 -1 140.5 -1 132 C-9.25 131.67 -17.5 131.34 -26 131 C-26 122.75 -26 114.5 -26 106 C-13.625 105.505 -13.625 105.505 -1 105 C-0.67 96.42 -0.34 87.84 0 79 C-8.58 79 -17.16 79 -26 79 C-26 70.42 -26 61.84 -26 53 C-17.42 53 -8.84 53 0 53 C0 35.51 0 18.02 0 0 Z " fill="#6F7C9C" transform="translate(218,4)"/>
<path d="M0 0 C8.91 0 17.82 0 27 0 C27 8.58 27 17.16 27 26 C35.25 26 43.5 26 52 26 C52 34.58 52 43.16 52 52 C43.75 52 35.5 52 27 52 C27.0395914 60.18252797 27.0395914 60.18252797 27.09008789 68.36499023 C27.09258545 69.37762939 27.09508301 70.39026855 27.09765625 71.43359375 C27.10551147 72.99678345 27.10551147 72.99678345 27.11352539 74.59155273 C27 77 27 77 26 78 C24.07332493 78.08748207 22.14348139 78.10697334 20.21484375 78.09765625 C19.16159912 78.09515869 18.10835449 78.09266113 17.02319336 78.09008789 C15.67491455 78.08098389 14.32663574 78.07187988 12.9375 78.0625 C8.668125 78.041875 4.39875 78.02125 0 78 C0 69.42 0 60.84 0 52 C8.58 52 17.16 52 26 52 C26 43.42 26 34.84 26 26 C17.42 26 8.84 26 0 26 C0 17.42 0 8.84 0 0 Z " fill="#DADCE3" transform="translate(61,5)"/>
<path d="M0 0 C8.25 0 16.5 0 25 0 C25 8.25 25 16.5 25 25 C32.92 25 40.84 25 49 25 C49 33.58 49 42.16 49 51 C32.83 51 16.66 51 0 51 C0 34.17 0 17.34 0 0 Z " fill="#7488B9" transform="translate(89,84)"/>
<path d="M0 0 C12.54 0 25.08 0 38 0 C38 17.16 38 34.32 38 52 C29.75 52 21.5 52 13 52 C13 43.42 13 34.84 13 26 C4.42 26 -4.16 26 -13 26 C-13 25.67 -13 25.34 -13 25 C-5.41 24.67 2.18 24.34 10 24 C9.67 23.01 9.34 22.02 9 21 C4.71 20.34 0.42 19.68 -4 19 C-4 18.34 -4 17.68 -4 17 C-2.88625 17.061875 -1.7725 17.12375 -0.625 17.1875 C0.57125 17.125625 1.7675 17.06375 3 17 C5.32038095 14.17431454 5.32038095 14.17431454 4.8125 10.9375 C4.26245502 7.70259047 4.26245502 7.70259047 1 6 C0.67 4.02 0.34 2.04 0 0 Z " fill="#E2E2E3" transform="translate(153,5)"/>
<path d="M0 0 C8.58 0 17.16 0 26 0 C26 17.16 26 34.32 26 52 C17.42 52 8.84 52 0 52 C0 34.84 0 17.68 0 0 Z " fill="#6C81B3" transform="translate(9,5)"/>
<path d="M0 0 C8.58 0 17.16 0 26 0 C26 8.25 26 16.5 26 25 C34.25 25 42.5 25 51 25 C51 33.91 51 42.82 51 52 C42.75 52 34.5 52 26 52 C25.505 39.13 25.505 39.13 25 26 C16.75 25.67 8.5 25.34 0 25 C0 16.75 0 8.5 0 0 Z " fill="#D5D6D7" transform="translate(140,136)"/>
<path d="M0 0 C8.58 0 17.16 0 26 0 C26 8.58 26 17.16 26 26 C17.42 26 8.84 26 0 26 C0 17.42 0 8.84 0 0 Z " fill="#EAEAEA" transform="translate(192,188)"/>
<path d="M0 0 C8.58 0 17.16 0 26 0 C26 8.58 26 17.16 26 26 C17.42 26 8.84 26 0 26 C0 17.42 0 8.84 0 0 Z " fill="#E3E3E5" transform="translate(140,188)"/>
<path d="M0 0 C8.58 0 17.16 0 26 0 C26 8.58 26 17.16 26 26 C17.42 26 8.84 26 0 26 C0 17.42 0 8.84 0 0 Z " fill="#6C80B1" transform="translate(61,188)"/>
<path d="M0 0 C8.58 0 17.16 0 26 0 C26 8.58 26 17.16 26 26 C17.42 26 8.84 26 0 26 C0 17.42 0 8.84 0 0 Z " fill="#6F84B6" transform="translate(9,188)"/>
<path d="M0 0 C8.58 0 17.16 0 26 0 C26 8.58 26 17.16 26 26 C17.42 26 8.84 26 0 26 C0 17.42 0 8.84 0 0 Z " fill="#E7E7E8" transform="translate(61,162)"/>
<path d="M0 0 C8.58 0 17.16 0 26 0 C26 8.58 26 17.16 26 26 C17.42 26 8.84 26 0 26 C0 17.42 0 8.84 0 0 Z " fill="#D7D7D7" transform="translate(9,162)"/>
<path d="M0 0 C8.58 0 17.16 0 26 0 C26 8.58 26 17.16 26 26 C17.42 26 8.84 26 0 26 C0 17.42 0 8.84 0 0 Z " fill="#ECEDEC" transform="translate(61,109)"/>
<path d="M0 0 C8.58 0 17.16 0 26 0 C26 8.58 26 17.16 26 26 C17.42 26 8.84 26 0 26 C0 17.42 0 8.84 0 0 Z " fill="#EDEDED" transform="translate(9,109)"/>
<path d="M0 0 C8.58 0 17.16 0 26 0 C26 8.58 26 17.16 26 26 C17.42 26 8.84 26 0 26 C0 17.42 0 8.84 0 0 Z " fill="#EDEDED" transform="translate(192,83)"/>
<path d="M0 0 C8.58 0 17.16 0 26 0 C26 8.58 26 17.16 26 26 C17.42 26 8.84 26 0 26 C0 17.42 0 8.84 0 0 Z " fill="#EDEDED" transform="translate(140,83)"/>
<path d="M0 0 C8.58 0 17.16 0 26 0 C26 8.58 26 17.16 26 26 C17.42 26 8.84 26 0 26 C0 17.42 0 8.84 0 0 Z " fill="#7086B7" transform="translate(61,83)"/>
<path d="M0 0 C8.58 0 17.16 0 26 0 C26 8.58 26 17.16 26 26 C17.42 26 8.84 26 0 26 C0 17.42 0 8.84 0 0 Z " fill="#EDEDED" transform="translate(35,83)"/>
<path d="M0 0 C8.58 0 17.16 0 26 0 C26 8.58 26 17.16 26 26 C17.42 26 8.84 26 0 26 C0 17.42 0 8.84 0 0 Z " fill="#6F85B7" transform="translate(9,83)"/>
<path d="M0 0 C8.58 0 17.16 0 26 0 C26 8.58 26 17.16 26 26 C17.42 26 8.84 26 0 26 C0 17.42 0 8.84 0 0 Z " fill="#7085B6" transform="translate(192,57)"/>
<path d="M0 0 C8.58 0 17.16 0 26 0 C26 8.58 26 17.16 26 26 C17.42 26 8.84 26 0 26 C0 17.42 0 8.84 0 0 Z " fill="#7286B8" transform="translate(140,57)"/>
<path d="M0 0 C8.58 0 17.16 0 26 0 C26 8.58 26 17.16 26 26 C17.42 26 8.84 26 0 26 C0 17.42 0 8.84 0 0 Z " fill="#EDEDED" transform="translate(61,57)"/>
<path d="M0 0 C8.58 0 17.16 0 26 0 C26 8.58 26 17.16 26 26 C17.42 26 8.84 26 0 26 C0 17.42 0 8.84 0 0 Z " fill="#EEEEEE" transform="translate(9,57)"/>
<path d="M0 0 C8.58 0 17.16 0 26 0 C26 8.58 26 17.16 26 26 C17.42 26 8.84 26 0 26 C0 17.42 0 8.84 0 0 Z " fill="#E8E8E8" transform="translate(140,31)"/>
<path d="M0 0 C8.58 0 17.16 0 26 0 C26 8.58 26 17.16 26 26 C17.42 26 8.84 26 0 26 C0 17.42 0 8.84 0 0 Z " fill="#6D82B3" transform="translate(61,31)"/>
<path d="M0 0 C8.58 0 17.16 0 26 0 C26 8.58 26 17.16 26 26 C17.42 26 8.84 26 0 26 C0 17.42 0 8.84 0 0 Z " fill="#E8E8E8" transform="translate(35,31)"/>
<path d="M0 0 C8.58 0 17.16 0 26 0 C26 8.58 26 17.16 26 26 C17.42 26 8.84 26 0 26 C0 17.42 0 8.84 0 0 Z " fill="#E6E6E6" transform="translate(9,5)"/>
<path d="M0 0 C8.58 0 17.16 0 26 0 C26 8.58 26 17.16 26 26 C17.42 26 8.84 26 0 26 C0 17.42 0 8.84 0 0 Z " fill="#7084B3" transform="translate(192,5)"/>
<path d="M0 0 C8.58 0 17.16 0 26 0 C26 8.58 26 17.16 26 26 C17.42 26 8.84 26 0 26 C0 17.42 0 8.84 0 0 Z " fill="#7386B2" transform="translate(35,5)"/>
<path d="M0 0 C8.25 0 16.5 0 25 0 C25 8.58 25 17.16 25 26 C16.75 26 8.5 26 0 26 C0 17.42 0 8.84 0 0 Z " fill="#6C80B0" transform="translate(166,188)"/>
<path d="M0 0 C8.25 0 16.5 0 25 0 C25 8.58 25 17.16 25 26 C16.75 26 8.5 26 0 26 C0 17.42 0 8.84 0 0 Z " fill="#6579A8" transform="translate(114,188)"/>
<path d="M0 0 C8.25 0 16.5 0 25 0 C25 8.58 25 17.16 25 26 C16.75 26 8.5 26 0 26 C0 17.42 0 8.84 0 0 Z " fill="#E1E1E2" transform="translate(114,162)"/>
<path d="M0 0 C8.58 0 17.16 0 26 0 C26 8.25 26 16.5 26 25 C17.42 25 8.84 25 0 25 C0 16.75 0 8.5 0 0 Z " fill="#7085B7" transform="translate(61,136)"/>
<path d="M0 0 C8.58 0 17.16 0 26 0 C26 8.25 26 16.5 26 25 C17.42 25 8.84 25 0 25 C0 16.75 0 8.5 0 0 Z " fill="#7085B7" transform="translate(9,136)"/>
<path d="M0 0 C8.58 0 17.16 0 26 0 C26 8.25 26 16.5 26 25 C17.42 25 8.84 25 0 25 C0 16.75 0 8.5 0 0 Z " fill="#EDEDED" transform="translate(192,136)"/>
<path d="M0 0 C8.58 0 17.16 0 26 0 C26 8.25 26 16.5 26 25 C17.42 25 8.84 25 0 25 C0 16.75 0 8.5 0 0 Z " fill="#6F84B6" transform="translate(192,110)"/>
<path d="M0 0 C8.25 0 16.5 0 25 0 C25 8.58 25 17.16 25 26 C16.75 26 8.5 26 0 26 C0 17.42 0 8.84 0 0 Z " fill="#6F85B7" transform="translate(166,83)"/>
<path d="M0 0 C8.25 0 16.5 0 25 0 C25 8.58 25 17.16 25 26 C16.75 26 8.5 26 0 26 C0 17.42 0 8.84 0 0 Z " fill="#EEEEEE" transform="translate(166,57)"/>
<path d="M0 0 C8.25 0 16.5 0 25 0 C25 8.58 25 17.16 25 26 C16.75 26 8.5 26 0 26 C0 17.42 0 8.84 0 0 Z " fill="#6C81B3" transform="translate(166,31)"/>
<path d="M0 0 C8.25 0 16.5 0 25 0 C25 8.58 25 17.16 25 26 C16.75 26 8.5 26 0 26 C0 17.42 0 8.84 0 0 Z " fill="#6C81B3" transform="translate(114,31)"/>
<path d="M0 0 C8.25 0 16.5 0 25 0 C25 8.58 25 17.16 25 26 C16.75 26 8.5 26 0 26 C0 17.42 0 8.84 0 0 Z " fill="#EAEAEA" transform="translate(88,31)"/>
<path d="M0 0 C8.25 0 16.5 0 25 0 C25 8.58 25 17.16 25 26 C16.75 26 8.5 26 0 26 C0 17.42 0 8.84 0 0 Z " fill="#6C81B2" transform="translate(88,5)"/>
<path d="M0 0 C8.25 0 16.5 0 25 0 C25.33 8.25 25.66 16.5 26 25 C17.42 25 8.84 25 0 25 C0 16.75 0 8.5 0 0 Z " fill="#6F88B5" transform="translate(88,57)"/>
<path d="M0 0 C8.25 0 16.5 0 25 0 C25 8.25 25 16.5 25 25 C16.75 25 8.5 25 0 25 C0 16.75 0 8.5 0 0 Z " fill="#6679A5" transform="translate(140,162)"/>
<path d="M0 0 C8.25 0 16.5 0 25 0 C25 8.25 25 16.5 25 25 C16.75 25 8.5 25 0 25 C0 16.75 0 8.5 0 0 Z " fill="#6679A5" transform="translate(88,162)"/>
<path d="M0 0 C8.25 0 16.5 0 25 0 C25 8.25 25 16.5 25 25 C16.75 25 8.5 25 0 25 C0 16.75 0 8.5 0 0 Z " fill="#6679A5" transform="translate(36,162)"/>
<path d="M0 0 C8.25 0 16.5 0 25 0 C25 8.25 25 16.5 25 25 C16.75 25 8.5 25 0 25 C0 16.75 0 8.5 0 0 Z " fill="#6F85B7" transform="translate(166,136)"/>
<path d="M0 0 C8.25 0 16.5 0 25 0 C25 8.25 25 16.5 25 25 C16.75 25 8.5 25 0 25 C0 16.75 0 8.5 0 0 Z " fill="#EEEEEE" transform="translate(140,136)"/>
<path d="M0 0 C8.25 0 16.5 0 25 0 C25 8.25 25 16.5 25 25 C16.75 25 8.5 25 0 25 C0 16.75 0 8.5 0 0 Z " fill="#EEEEEE" transform="translate(36,136)"/>
<path d="M0 0 C8.25 0 16.5 0 25 0 C25 8.25 25 16.5 25 25 C16.75 25 8.5 25 0 25 C0 16.75 0 8.5 0 0 Z " fill="#EEEEEE" transform="translate(166,110)"/>
<path d="M0 0 C8.25 0 16.5 0 25 0 C25 8.25 25 16.5 25 25 C16.75 25 8.5 25 0 25 C0 16.75 0 8.5 0 0 Z " fill="#7085B7" transform="translate(140,110)"/>
<path d="M0 0 C8.25 0 16.5 0 25 0 C25 8.25 25 16.5 25 25 C16.75 25 8.5 25 0 25 C0 16.75 0 8.5 0 0 Z " fill="#7085B7" transform="translate(36,110)"/>
<path d="M0 0 C8.25 0 16.5 0 25 0 C25 8.25 25 16.5 25 25 C16.75 25 8.5 25 0 25 C0 16.75 0 8.5 0 0 Z " fill="#EDECED" transform="translate(89,84)"/>
<path d="M0 0 C7.92 0 15.84 0 24 0 C24 8.58 24 17.16 24 26 C16.08 26 8.16 26 0 26 C0 17.42 0 8.84 0 0 Z " fill="#EDEDED" transform="translate(114,109)"/>
<path d="M0 0 C8.25 0 16.5 0 25 0 C25 7.92 25 15.84 25 24 C16.75 24 8.5 24 0 24 C0 16.08 0 8.16 0 0 Z " fill="#6E87B5" transform="translate(114,137)"/>
<path d="M0 0 C8.25 0 16.5 0 25 0 C25 7.92 25 15.84 25 24 C16.75 24 8.5 24 0 24 C0 16.08 0 8.16 0 0 Z " fill="#EEEDEE" transform="translate(114,57)"/>
<path d="M0 0 C8.25 0 16.5 0 25 0 C25 7.59 25 15.18 25 23 C16.75 23 8.5 23 0 23 C0 15.41 0 7.82 0 0 Z " fill="#EEEEEE" transform="translate(88,138)"/>
<path d="M0 0 C0.33 0 0.66 0 1 0 C1 34.32 1 68.64 1 104 C9.25 104 17.5 104 26 104 C26 104.33 26 104.66 26 105 C17.75 105 9.5 105 1 105 C1 113.25 1 121.5 1 130 C9.25 130 17.5 130 26 130 C26 130.33 26 130.66 26 131 C17.75 131 9.5 131 1 131 C1 139.25 1 147.5 1 156 C9.25 156 17.5 156 26 156 C26 156.33 26 156.66 26 157 C17.75 157 9.5 157 1 157 C1 165.25 1 173.5 1 182 C9.25 182 17.5 182 26 182 C26 182.33 26 182.66 26 183 C17.75 183 9.5 183 1 183 C1 191.58 1 200.16 1 209 C0.67 209 0.34 209 0 209 C0 183.26 0 157.52 0 131 C-16.83 131 -33.66 131 -51 131 C-51 130.67 -51 130.34 -51 130 C-42.75 130 -34.5 130 -26 130 C-26 121.75 -26 113.5 -26 105 C-34.25 105 -42.5 105 -51 105 C-51 104.67 -51 104.34 -51 104 C-34.17 104 -17.34 104 0 104 C0 69.68 0 35.36 0 0 Z M-25 105 C-25 113.25 -25 121.5 -25 130 C-16.75 130 -8.5 130 0 130 C0 121.75 0 113.5 0 105 C-8.25 105 -16.5 105 -25 105 Z " fill="#AEB8D1" transform="translate(191,5)"/>
<path d="M0 0 C4.29 0 8.58 0 13 0 C13.66 1.98 14.32 3.96 15 6 C15.721875 6.680625 16.44375 7.36125 17.1875 8.0625 C17.785625 8.701875 18.38375 9.34125 19 10 C18.82919705 13.41605892 17.64784469 16.03387957 16 19 C16 18.34 16 17.68 16 17 C13.69 17 11.38 17 9 17 C9 17.66 9 18.32 9 19 C13.29 19.33 17.58 19.66 22 20 C22.33 21.32 22.66 22.64 23 24 C17.79892395 24.8679851 12.82856535 25.12463484 7.5625 25.0625 C5.066875 25.041875 2.57125 25.02125 0 25 C0 16.75 0 8.5 0 0 Z " fill="#6E83B5" transform="translate(140,5)"/>
<path d="M0 0 C2 2 2 2 2 4 C2.928125 3.95875 3.85625 3.9175 4.8125 3.875 C8 4 8 4 11 6 C11.43132515 10.05445642 11.30019361 11.54970958 9 15 C8.67 16.65 8.34 18.3 8 20 C3.05 20 -1.9 20 -7 20 C-6.67 18.35 -6.34 16.7 -6 15 C-6.66 15 -7.32 15 -8 15 C-10.56687367 11.1496895 -9.83288724 9.41430237 -9 5 C-3.25 4 -3.25 4 -1 4 C-0.67 2.68 -0.34 1.36 0 0 Z " fill="#B1B1B1" transform="translate(126,8)"/>
<path d="M0 0 C1.50433594 0.01353516 1.50433594 0.01353516 3.0390625 0.02734375 C3.80992188 0.03894531 4.58078125 0.05054688 5.375 0.0625 C5.43289006 3.52076342 5.46855821 6.97890293 5.5 10.4375 C5.51675781 11.42234375 5.53351563 12.4071875 5.55078125 13.421875 C5.55722656 14.36289063 5.56367187 15.30390625 5.5703125 16.2734375 C5.58078613 17.14274902 5.59125977 18.01206055 5.60205078 18.90771484 C5.375 21.0625 5.375 21.0625 3.375 23.0625 C-1.86170927 23.55652918 -4.23837174 22.69447696 -8.625 20.0625 C-12.33393908 19.81150133 -12.33393908 19.81150133 -15.625 20.0625 C-15.625 19.7325 -15.625 19.4025 -15.625 19.0625 C-13.975 18.7325 -12.325 18.4025 -10.625 18.0625 C-10.955 17.52625 -11.285 16.99 -11.625 16.4375 C-12.85199204 13.5233939 -12.76733286 11.19382292 -12.625 8.0625 C-11.965 7.7325 -11.305 7.4025 -10.625 7.0625 C-10.625 9.0425 -10.625 11.0225 -10.625 13.0625 C-9.635 13.3925 -8.645 13.7225 -7.625 14.0625 C-7.955 12.4125 -8.285 10.7625 -8.625 9.0625 C-7.635 8.7325 -6.645 8.4025 -5.625 8.0625 C-5.295 9.7125 -4.965 11.3625 -4.625 13.0625 C-3.635 13.3925 -2.645 13.7225 -1.625 14.0625 C-1.32892303 10.45261935 -1.32892303 10.45261935 -2.8125 7.25 C-5.18482525 5.69571794 -6.84541345 5.83712812 -9.625 6.0625 C-7.52003996 0.19868275 -6.0947024 -0.07086863 0 0 Z " fill="#67779E" transform="translate(80.625,188.9375)"/>
<path d="M0 0 C0.33 0 0.66 0 1 0 C1 7.92 1 15.84 1 24 C2.79308594 23.98839844 4.58617187 23.97679687 6.43359375 23.96484375 C8.76822813 23.95546771 11.10286363 23.94636731 13.4375 23.9375 C14.62150391 23.92912109 15.80550781 23.92074219 17.02539062 23.91210938 C18.15009766 23.90888672 19.27480469 23.90566406 20.43359375 23.90234375 C21.47572021 23.89710693 22.51784668 23.89187012 23.59155273 23.88647461 C26 24 26 24 27 25 C27.08748207 26.92667507 27.10697334 28.85651861 27.09765625 30.78515625 C27.09515869 31.83840088 27.09266113 32.89164551 27.09008789 33.97680664 C27.08098389 35.32508545 27.07187988 36.67336426 27.0625 38.0625 C27.041875 42.331875 27.02125 46.60125 27 51 C18.42 51 9.84 51 1 51 C1 59.58 1 68.16 1 77 C0.67 77 0.34 77 0 77 C0 59.84 0 42.68 0 25 C-8.25 25 -16.5 25 -25 25 C-25 33.58 -25 42.16 -25 51 C-33.91 51 -42.82 51 -52 51 C-52 42.42 -52 33.84 -52 25 C-51.67 25 -51.34 25 -51 25 C-51 33.25 -51 41.5 -51 50 C-42.75 50 -34.5 50 -26 50 C-26 33.83 -26 17.66 -26 1 C-25.67 1 -25.34 1 -25 1 C-25 8.59 -25 16.18 -25 24 C-16.75 24 -8.5 24 0 24 C0 16.08 0 8.16 0 0 Z M1 25 C1 33.25 1 41.5 1 50 C9.25 50 17.5 50 26 50 C26 41.75 26 33.5 26 25 C17.75 25 9.5 25 1 25 Z " fill="#ACB6CF" transform="translate(139,137)"/>
<path d="M0 0 C8.25 0 16.5 0 25 0 C25 8.25 25 16.5 25 25 C18.73 25 12.46 25 6 25 C6 24.67 6 24.34 6 24 C10.62 24 15.24 24 20 24 C20 22.02 20 20.04 20 18 C20.66 17.01 21.32 16.02 22 15 C22.16699232 11.87478167 22.16699232 11.87478167 22 9 C21.071875 8.855625 20.14375 8.71125 19.1875 8.5625 C16 8 16 8 13 7 C12.67 6.01 12.34 5.02 12 4 C11.67 5.32 11.34 6.64 11 8 C8.36 8 5.72 8 3 8 C2.67 9.65 2.34 11.3 2 13 C0 10 0 10 0 0 Z " fill="#ECECEC" transform="translate(114,5)"/>
<path d="M0 0 C4.29 0 8.58 0 13 0 C13 8.58 13 17.16 13 26 C4.42 26 -4.16 26 -13 26 C-13 25.67 -13 25.34 -13 25 C-5.41 24.67 2.18 24.34 10 24 C9.67 23.01 9.34 22.02 9 21 C4.71 20.34 0.42 19.68 -4 19 C-4 18.34 -4 17.68 -4 17 C-2.88625 17.061875 -1.7725 17.12375 -0.625 17.1875 C0.57125 17.125625 1.7675 17.06375 3 17 C5.32038095 14.17431454 5.32038095 14.17431454 4.8125 10.9375 C4.26245502 7.70259047 4.26245502 7.70259047 1 6 C0.67 4.02 0.34 2.04 0 0 Z " fill="#788AB7" transform="translate(153,5)"/>
<path d="M0 0 C0.99 0.33 1.98 0.66 3 1 C3.33 2.65 3.66 4.3 4 6 C6.10232344 3.1315587 6.10232344 3.1315587 7 0 C7.99 0.33 8.98 0.66 10 1 C10 3.64 10 6.28 10 9 C10.66 9 11.32 9 12 9 C12.33 7.68 12.66 6.36 13 5 C13.99 5.33 14.98 5.66 16 6 C15.67 6.99 15.34 7.98 15 9 C14.34 9 13.68 9 13 9 C12.67 12.63 12.34 16.26 12 20 C7.05 20 2.1 20 -3 20 C-3.33 16.37 -3.66 12.74 -4 9 C-4.99 8.67 -5.98 8.34 -7 8 C-6.67 7.01 -6.34 6.02 -6 5 C-5.01 5.33 -4.02 5.66 -3 6 C-3 6.99 -3 7.98 -3 9 C-2.34 9 -1.68 9 -1 9 C-1.020625 7.700625 -1.04125 6.40125 -1.0625 5.0625 C-1.08399454 3.70834367 -1.07148199 2.35243917 -1 1 C-0.67 0.67 -0.34 0.34 0 0 Z " fill="#605F5F" transform="translate(96,191)"/>
<path d="M0 0 C7.92 0 15.84 0 24 0 C24 0.33 24 0.66 24 1 C17.565 1.495 17.565 1.495 11 2 C11 3.32 11 4.64 11 6 C10.319375 6.556875 9.63875 7.11375 8.9375 7.6875 C6.78784152 9.7816629 6.78784152 9.7816629 6.88671875 12.21875 C7.11280475 14.56114917 7.34825757 16.73726045 8 19 C8.66 19.33 9.32 19.66 10 20 C7.69 20.66 5.38 21.32 3 22 C4.258125 22 5.51625 22 6.8125 22 C9.20833333 22 11.60416667 22 14 22 C14.66 22.99 15.32 23.98 16 25 C15 26 15 26 11.62109375 26.09765625 C10.22652508 26.09191424 8.83198403 26.07890228 7.4375 26.0625 C4.983125 26.041875 2.52875 26.02125 0 26 C0 17.42 0 8.84 0 0 Z " fill="#EAEAEA" transform="translate(140,188)"/>
<path d="M0 0 C1.32 0 2.64 0 4 0 C4 0.66 4 1.32 4 2 C4.66 2 5.32 2 6 2 C6 1.34 6 0.68 6 0 C8.97 0 11.94 0 15 0 C15.042721 1.66611905 15.04063832 3.33382885 15 5 C14.67 5.33 14.34 5.66 14 6 C13.77081758 10.01657143 13.77081758 10.01657143 14 14 C14.66 14.66 15.32 15.32 16 16 C16 16.99 16 17.98 16 19 C10.72 19 5.44 19 0 19 C0 17.68 0 16.36 0 15 C0.66 15 1.32 15 2 15 C1.85950482 13.52031676 1.71245174 12.04125484 1.5625 10.5625 C1.48128906 9.73878906 1.40007812 8.91507813 1.31640625 8.06640625 C1.21069185 6.01337975 1.21069185 6.01337975 0 5 C-0.04063832 3.33382885 -0.042721 1.66611905 0 0 Z " fill="#4F4F4F" transform="translate(197,192)"/>
<path d="M0 0 C2.4375 0.125 2.4375 0.125 5 1 C6.8125 3.0625 6.8125 3.0625 8 5 C8.99 3.35 9.98 1.7 11 0 C12.65 0.33 14.3 0.66 16 1 C17.57530966 5.88345993 16.44240704 10.21832186 15 15 C14 16 14 16 11.05859375 16.09765625 C9.86363281 16.08605469 8.66867188 16.07445312 7.4375 16.0625 C5.64119141 16.04896484 5.64119141 16.04896484 3.80859375 16.03515625 C2.88175781 16.02355469 1.95492187 16.01195312 1 16 C-0.66860506 11.21301827 -1.66348157 7.0477764 -2 2 C-1.34 1.34 -0.68 0.68 0 0 Z " fill="#595F6B" transform="translate(119,196)"/>
<path d="M0 0 C2.01782732 2.90567134 3.35494404 5.51669784 4 9 C4.66 8.34 5.32 7.68 6 7 C7.92572521 10.85145043 7.04883218 15.80043252 7 20 C2.05 20 -2.9 20 -8 20 C-7 14 -7 14 -5.37109375 12.7578125 C-3.58072917 12.171875 -1.79036458 11.5859375 0 11 C-0.33 11 -0.66 11 -1 11 C-3 11 -5 11 -7 11 C-7 11.66 -7 12.32 -7 13 C-7.99 13 -8.98 13 -10 13 C-10.33 11.02 -10.66 9.04 -11 7 C-9.54634731 5.82750647 -8.08692581 4.66216184 -6.625 3.5 C-5.40683594 2.52546875 -5.40683594 2.52546875 -4.1640625 1.53125 C-2 0 -2 0 0 0 Z " fill="#141414" transform="translate(181,8)"/>
<path d="M0 0 C2.97 0 5.94 0 9 0 C9 0.66 9 1.32 9 2 C9.66 2 10.32 2 11 2 C11 1.34 11 0.68 11 0 C11.99 0.33 12.98 0.66 14 1 C13.34 1 12.68 1 12 1 C12 1.66 12 2.32 12 3 C10.68 3 9.36 3 8 3 C8 2.34 8 1.68 8 1 C7.34 1 6.68 1 6 1 C6 1.66 6 2.32 6 3 C5.01 3 4.02 3 3 3 C3 2.34 3 1.68 3 1 C2.34 1 1.68 1 1 1 C1.66 2.32 2.32 3.64 3 5 C6.3 5 9.6 5 13 5 C13 8.3 13 11.6 13 15 C13.66 15 14.32 15 15 15 C15.33 16.65 15.66 18.3 16 20 C10.39 20 4.78 20 -1 20 C-0.67 18.35 -0.34 16.7 0 15 C0.06774144 12.38518042 0.09500258 9.80020744 0.0625 7.1875 C0.05798828 6.49462891 0.05347656 5.80175781 0.04882812 5.08789062 C0.03713156 3.39188932 0.01919924 1.69593297 0 0 Z " fill="#474E5C" transform="translate(15,192)"/>
<path d="M0 0 C4.62 0 9.24 0 14 0 C14 8.25 14 16.5 14 25 C9.05 25 4.1 25 -1 25 C-0.01 23.515 -0.01 23.515 1 22 C3.3828125 21.70703125 3.3828125 21.70703125 6.125 21.8125 C7.03507812 21.83957031 7.94515625 21.86664062 8.8828125 21.89453125 C9.58148438 21.92933594 10.28015625 21.96414062 11 22 C8.69 21.34 6.38 20.68 4 20 C4.66 19.67 5.32 19.34 6 19 C6.85773499 16.02208909 7.1527251 13.09268332 7 10 C5.20808968 7.70784955 5.20808968 7.70784955 3 6 C2.61500109 4.34450469 2.27206865 2.6777567 2 1 C1.34 0.67 0.68 0.34 0 0 Z " fill="#ECECEC" transform="translate(73,5)"/>
<path d="M0 0 C4.62 0 9.24 0 14 0 C13 5 13 5 12 6 C12.61773477 8.69155866 13.27878205 11.33742141 14 14 C14.33 15.32 14.66 16.64 15 18 C9.72 18 4.44 18 -1 18 C0 14 0 14 1 13 C1.15775038 8.26748847 0.94043148 4.70215739 0 0 Z " fill="#181818" transform="translate(15,10)"/>
<path d="M0 0 C3.09072378 2.06048252 3.73378131 2.67762803 5 6 C5.4140625 8.796875 5.4140625 8.796875 5.625 11.75 C5.69976562 12.73484375 5.77453125 13.7196875 5.8515625 14.734375 C5.92503906 15.85585938 5.92503906 15.85585938 6 17 C6.33 14.03 6.66 11.06 7 8 C7.33 8 7.66 8 8 8 C8 11.96 8 15.92 8 20 C3.05 20 -1.9 20 -7 20 C-5 14 -5 14 -2 12 C-3.98 12.33 -5.96 12.66 -8 13 C-8 12.34 -8 11.68 -8 11 C-8.66 10.67 -9.32 10.34 -10 10 C-8.5741914 6.54804233 -6.90253666 4.8985744 -3.875 2.75 C-3.15054688 2.22921875 -2.42609375 1.7084375 -1.6796875 1.171875 C-1.12539063 0.78515625 -0.57109375 0.3984375 0 0 Z " fill="#08090A" transform="translate(49,8)"/>
<path d="M0 0 C8.25 0 16.5 0 25 0 C25 8.25 25 16.5 25 25 C19.06 25 13.12 25 7 25 C7 24.67 7 24.34 7 24 C11.95 24 16.9 24 22 24 C21.67 20.04 21.34 16.08 21 12 C20.67 14.97 20.34 17.94 20 21 C19.67 21 19.34 21 19 21 C18.87882812 20.09636719 18.75765625 19.19273438 18.6328125 18.26171875 C18.46523437 17.08222656 18.29765625 15.90273438 18.125 14.6875 C17.96257812 13.51574219 17.80015625 12.34398437 17.6328125 11.13671875 C17.17699379 7.85469105 17.17699379 7.85469105 15 5 C15 4.01 15 3.02 15 2 C8.07 1.505 8.07 1.505 1 1 C1 8.92 1 16.84 1 25 C0.67 25 0.34 25 0 25 C0 16.75 0 8.5 0 0 Z " fill="#F0F0F0" transform="translate(166,5)"/>
<path d="M0 0 C3.77528304 1.25842768 4.10667045 2.62493429 6 6 C6.66 6.66 7.32 7.32 8 8 C7.6875 10.375 7.6875 10.375 7 13 C6.814375 13.763125 6.62875 14.52625 6.4375 15.3125 C6.2209375 16.1478125 6.2209375 16.1478125 6 17 C7.2065625 17.433125 7.2065625 17.433125 8.4375 17.875 C11 19 11 19 12 21 C5 21 -2 21 -9 21 C-8.505 19.515 -8.505 19.515 -8 18 C-6.35 17.67 -4.7 17.34 -3 17 C-3.350625 16.29875 -3.70125 15.5975 -4.0625 14.875 C-5.18528652 11.43178802 -4.99936105 9.4593267 -4 6 C-3.01 5.34 -2.02 4.68 -1 4 C-0.27617533 1.94074861 -0.27617533 1.94074861 0 0 Z " fill="#1D1D1D" transform="translate(73,7)"/>
<path d="M0 0 C8.25 0 16.5 0 25 0 C25 8.58 25 17.16 25 26 C18.73 26 12.46 26 6 26 C6.33 25.34 6.66 24.68 7 24 C11.95 24 16.9 24 22 24 C21.67 23.34 21.34 22.68 21 22 C20.72448188 19.24481883 20.55393759 16.48982329 20.37890625 13.7265625 C19.99916722 10.99400745 19.49572953 9.30190239 18 7 C17.01 6.34 16.02 5.68 15 5 C15 4.01 15 3.02 15 2 C10.05 1.67 5.1 1.34 0 1 C0 0.67 0 0.34 0 0 Z " fill="#EFEEEE" transform="translate(36,188)"/>
<path d="M0 0 C0.99 0.33 1.98 0.66 3 1 C3 1.99 3 2.98 3 4 C4.32 4.66 5.64 5.32 7 6 C6.67 6.66 6.34 7.32 6 8 C4.68 7.34 3.36 6.68 2 6 C2.33 7.98 2.66 9.96 3 12 C4.32 12 5.64 12 7 12 C6.67 13.65 6.34 15.3 6 17 C7.98 17.66 9.96 18.32 12 19 C12 19.66 12 20.32 12 21 C5 21 -2 21 -9 21 C-7 18 -7 18 -4.875 17.3125 C-4.25625 17.209375 -3.6375 17.10625 -3 17 C-3.350625 16.29875 -3.70125 15.5975 -4.0625 14.875 C-5.19195389 11.4113414 -5.07838759 9.46624583 -4 6 C-1.9375 4.625 -1.9375 4.625 0 4 C0 2.68 0 1.36 0 0 Z " fill="#767676" transform="translate(151,190)"/>
<path d="M0 0 C2.1875 1.5 2.1875 1.5 4.1875 4.5 C4.45624159 8.51499931 4.27413712 12.47137407 4.1875 16.5 C0.2275 16.5 -3.7325 16.5 -7.8125 16.5 C-7.4825 15.18 -7.1525 13.86 -6.8125 12.5 C-5.8225 12.17 -4.8325 11.84 -3.8125 11.5 C-3.4825 10.51 -3.1525 9.52 -2.8125 8.5 C-4.7925 8.5 -6.7725 8.5 -8.8125 8.5 C-9.1425 7.18 -9.4725 5.86 -9.8125 4.5 C-3.78834332 -0.67348326 -3.78834332 -0.67348326 0 0 Z " fill="#F4F4F4" transform="translate(181.8125,193.5)"/>
<path d="M0 0 C4.62 0 9.24 0 14 0 C13.67 1.65 13.34 3.3 13 5 C12.79708924 6.43540577 12.60829763 7.87291997 12.4375 9.3125 C12.2209375 11.1378125 12.2209375 11.1378125 12 13 C8.37 13 4.74 13 1 13 C0.67 8.71 0.34 4.42 0 0 Z " fill="#2A2C2F" transform="translate(198,10)"/>
<path d="M0 0 C0.99 0 1.98 0 3 0 C3.66 1.98 4.32 3.96 5 6 C7.1385485 3.8614515 7.42655063 2.86724686 8 0 C8.99 0 9.98 0 11 0 C10.979375 1.134375 10.95875 2.26875 10.9375 3.4375 C10.58422523 6.81575674 10.58422523 6.81575674 12 8 C12.33 7.01 12.66 6.02 13 5 C14.32 5 15.64 5 17 5 C16.67 5.99 16.34 6.98 16 8 C15.34 8 14.68 8 14 8 C13.34 10.97 12.68 13.94 12 17 C11.67 15.68 11.34 14.36 11 13 C7.37 13 3.74 13 0 13 C-0.33 14.32 -0.66 15.64 -1 17 C-1.10957031 16.36191406 -1.21914062 15.72382813 -1.33203125 15.06640625 C-1.49058594 14.24011719 -1.64914063 13.41382813 -1.8125 12.5625 C-2.03873047 11.32693359 -2.03873047 11.32693359 -2.26953125 10.06640625 C-2.63111328 9.04353516 -2.63111328 9.04353516 -3 8 C-3.99 7.67 -4.98 7.34 -6 7 C-6 6.34 -6 5.68 -6 5 C-4.68 5 -3.36 5 -2 5 C-1.67 5.99 -1.34 6.98 -1 8 C0.41577477 6.81575674 0.41577477 6.81575674 0.0625 3.4375 C0.041875 2.303125 0.02125 1.16875 0 0 Z " fill="#07090B" transform="translate(95,9)"/>
<path d="M0 0 C2.86724686 0.57344937 3.8614515 0.8614515 6 3 C6.1953125 6.0390625 6.1953125 6.0390625 6.125 9.625 C6.10695313 10.81351563 6.08890625 12.00203125 6.0703125 13.2265625 C6.04710937 14.14179688 6.02390625 15.05703125 6 16 C2.04 16 -1.92 16 -6 16 C-3.85809492 10.6452373 -2.74907807 9.78750235 2 7 C0.52377052 7 -0.92847735 7.39283798 -2.375 7.6875 C-6 8 -6 8 -7.9375 6.5625 C-8.4634375 5.7890625 -8.4634375 5.7890625 -9 5 C-8.195625 4.71125 -7.39125 4.4225 -6.5625 4.125 C-3.8673532 3.26737432 -3.8673532 3.26737432 -3 1 C-3 1.66 -3 2.32 -3 3 C-2.01 3 -1.02 3 0 3 C0 2.01 0 1.02 0 0 Z " fill="#F9F9FA" transform="translate(49,194)"/>
<path d="M0 0 C1.65 0 3.3 0 5 0 C6 4 6 4 7 8 C6.34 8 5.68 8 5 8 C6.20632452 11.43338516 7.38477184 13.50364585 10 16 C10 16.66 10 17.32 10 18 C5.05 18 0.1 18 -5 18 C-3 14 -3 14 -1 12 C-0.3574765 9.93125966 -0.3574765 9.93125966 0 8 C-0.66 7.67 -1.32 7.34 -2 7 C-1.67 6.01 -1.34 5.02 -1 4 C-0.65772583 2.66893378 -0.32248257 1.33599921 0 0 Z " fill="#0C0C0C" transform="translate(98,36)"/>
<path d="M0 0 C1.50433594 0.01353516 1.50433594 0.01353516 3.0390625 0.02734375 C3.80992187 0.03894531 4.58078125 0.05054688 5.375 0.0625 C5.48307131 1.99877769 5.5606225 3.93677756 5.625 5.875 C5.67140625 6.95394531 5.7178125 8.03289062 5.765625 9.14453125 C5.375 12.0625 5.375 12.0625 3.359375 13.94921875 C2.70453125 14.31660156 2.0496875 14.68398437 1.375 15.0625 C1.375 13.0825 1.375 11.1025 1.375 9.0625 C-0.275 8.7325 -1.925 8.4025 -3.625 8.0625 C-4.615 10.7025 -5.605 13.3425 -6.625 16.0625 C-8.14799523 13.12529492 -9.42600302 10.1456351 -10.625 7.0625 C-9.965 6.7325 -9.305 6.4025 -8.625 6.0625 C-8.46 5.2375 -8.295 4.4125 -8.125 3.5625 C-7.96 2.7375 -7.795 1.9125 -7.625 1.0625 C-4.98041621 -0.25979189 -2.94738699 -0.03427194 0 0 Z " fill="#6577A3" transform="translate(133.625,188.9375)"/>
<path d="M0 0 C1.65 0 3.3 0 5 0 C6 4 6 4 7 8 C6.34 8 5.68 8 5 8 C5.45375 8.9075 5.9075 9.815 6.375 10.75 C7.58333333 13.16666667 8.79166667 15.58333333 10 18 C5.05 18 0.1 18 -5 18 C-3.21739173 14.43478346 -1.24007711 11.28544643 1 8 C0.01 7.67 -0.98 7.34 -2 7 C-1.34 4.69 -0.68 2.38 0 0 Z " fill="#090908" transform="translate(202,36)"/>
<path d="M0 0 C1.65 0 3.3 0 5 0 C6 4 6 4 7 8 C6.34 8 5.68 8 5 8 C6.20632452 11.43338516 7.38477184 13.50364585 10 16 C10 16.66 10 17.32 10 18 C5.05 18 0.1 18 -5 18 C-3.21739173 14.43478346 -1.24007711 11.28544643 1 8 C0.01 7.67 -0.98 7.34 -2 7 C-1.34 4.69 -0.68 2.38 0 0 Z " fill="#080808" transform="translate(150,36)"/>
<path d="M0 0 C1.65 0 3.3 0 5 0 C5.66 2.64 6.32 5.28 7 8 C6.34 8 5.68 8 5 8 C6.20632452 11.43338516 7.38477184 13.50364585 10 16 C10 16.66 10 17.32 10 18 C5.38 18 0.76 18 -4 18 C-3 14 -3 14 -1 12 C-0.3574765 9.93125966 -0.3574765 9.93125966 0 8 C-0.66 7.67 -1.32 7.34 -2 7 C-1.34 4.69 -0.68 2.38 0 0 Z " fill="#050608" transform="translate(176,36)"/>
<path d="M0 0 C1.67542976 0.28604898 3.34385343 0.61781233 5 1 C5.66 3.31 6.32 5.62 7 8 C6.01 8 5.02 8 4 8 C4.77479736 10.99152582 4.77479736 10.99152582 6 14 C6.99 14.33 7.98 14.66 9 15 C9 15.99 9 16.98 9 18 C4.38 18 -0.24 18 -5 18 C-3.33333333 14.66666667 -1.66666667 11.33333333 0 8 C-0.99 7.67 -1.98 7.34 -3 7 C-2.34 6.67 -1.68 6.34 -1 6 C-1.020625 5.195625 -1.04125 4.39125 -1.0625 3.5625 C-1 1 -1 1 0 0 Z " fill="#030304" transform="translate(72,36)"/>
<path d="M0 0 C1.65 0 3.3 0 5 0 C5.66 2.64 6.32 5.28 7 8 C6.34 8 5.68 8 5 8 C6.07401108 10.91517292 6.77810176 12.77810176 9 15 C9 15.99 9 16.98 9 18 C4.71 18 0.42 18 -4 18 C-3 14 -3 14 -1 12 C-0.3574765 9.93125966 -0.3574765 9.93125966 0 8 C-0.66 7.67 -1.32 7.34 -2 7 C-1.34 4.69 -0.68 2.38 0 0 Z " fill="#040507" transform="translate(124,36)"/>
<path d="M0 0 C1.67542976 0.28604898 3.34385343 0.61781233 5 1 C5.66 3.31 6.32 5.62 7 8 C6.01 8 5.02 8 4 8 C5.68807908 12.23084903 5.68807908 12.23084903 9 15 C9 15.99 9 16.98 9 18 C4.38 18 -0.24 18 -5 18 C-3.33333333 14.66666667 -1.66666667 11.33333333 0 8 C-0.99 7.67 -1.98 7.34 -3 7 C-2.34 6.67 -1.68 6.34 -1 6 C-1.020625 5.195625 -1.04125 4.39125 -1.0625 3.5625 C-1 1 -1 1 0 0 Z " fill="#020203" transform="translate(20,36)"/>
<path d="M0 0 C1.67542976 0.28604898 3.34385343 0.61781233 5 1 C5.66 3.31 6.32 5.62 7 8 C6.01 8 5.02 8 4 8 C5.68807908 12.23084903 5.68807908 12.23084903 9 15 C9 15.99 9 16.98 9 18 C4.38 18 -0.24 18 -5 18 C-3.33333333 14.66666667 -1.66666667 11.33333333 0 8 C-0.99 7.67 -1.98 7.34 -3 7 C-2.34 6.67 -1.68 6.34 -1 6 C-1.020625 5.195625 -1.04125 4.39125 -1.0625 3.5625 C-1 1 -1 1 0 0 Z " fill="#070707" transform="translate(46,36)"/>
<path d="M0 0 C0.99 0 1.98 0 3 0 C3.12375 0.86625 3.12375 0.86625 3.25 1.75 C3.85946366 4.18836022 3.85946366 4.18836022 6.125 5.9375 C6.74375 6.618125 7.3625 7.29875 8 8 C7.82919705 11.41605892 6.64784469 14.03387957 5 17 C5 16.34 5 15.68 5 15 C2.69 15 0.38 15 -2 15 C-2.33 15.66 -2.66 16.32 -3 17 C-4.82177738 13.24928186 -5.36624071 10.99362668 -4 7 C-3.0206121 5.97980427 -2.02104551 4.97850195 -1 4 C-0.28552357 1.89667109 -0.28552357 1.89667109 0 0 Z " fill="#222324" transform="translate(151,7)"/>
<path d="M0 0 C4 5 4 5 5 10 C9.29 10 13.58 10 18 10 C18.2475 8.906875 18.495 7.81375 18.75 6.6875 C20 3 20 3 24 0 C24 4.29 24 8.58 24 13 C16.08 13 8.16 13 0 13 C0 8.71 0 4.42 0 0 Z " fill="#7085B8" transform="translate(115,201)"/>
<path d="M0 0 C0.33 0 0.66 0 1 0 C1.02578125 0.59167969 1.0515625 1.18335938 1.078125 1.79296875 C1.47476981 7.31895213 2.44893986 9.67214546 6 14 C6.62886498 16.69803364 6.81159265 19.22099164 7 22 C13.93 22.495 13.93 22.495 21 23 C21 23.33 21 23.66 21 24 C20.00097656 24.06058594 19.00195312 24.12117188 17.97265625 24.18359375 C16.68230469 24.26738281 15.39195313 24.35117188 14.0625 24.4375 C12.77472656 24.51871094 11.48695312 24.59992188 10.16015625 24.68359375 C7.13976043 24.64919188 7.13976043 24.64919188 6 26 C4.02 26 2.04 26 0 26 C0 17.42 0 8.84 0 0 Z " fill="#DCDDE1" transform="translate(87,188)"/>
<path d="M0 0 C0 5.61 0 11.22 0 17 C-8.25 17 -16.5 17 -25 17 C-25 16.67 -25 16.34 -25 16 C-20.48184719 15.11722245 -16.22487306 14.89410497 -11.625 14.9375 C-9.75714844 14.95103516 -9.75714844 14.95103516 -7.8515625 14.96484375 C-6.44003906 14.98224609 -6.44003906 14.98224609 -5 15 C-5 14.34 -5 13.68 -5 13 C-5.66 12.67 -6.32 12.34 -7 12 C-6.57405412 10.55903414 -6.13373367 9.12231288 -5.6875 7.6875 C-5.44386719 6.88699219 -5.20023438 6.08648437 -4.94921875 5.26171875 C-4.06127876 3.14600988 -2.67442875 0 0 0 Z " fill="#7286B5" transform="translate(113,14)"/>
<path d="M0 0 C0.33 0.66 0.66 1.32 1 2 C2.32 2 3.64 2 5 2 C5.33 1.34 5.66 0.68 6 0 C6 0.66 6 1.32 6 2 C7.32 2 8.64 2 10 2 C10 1.34 10 0.68 10 0 C10.66 0 11.32 0 12 0 C11.34 4.29 10.68 8.58 10 13 C7.03 13 4.06 13 1 13 C1.020625 11.783125 1.04125 10.56625 1.0625 9.3125 C1.06824116 6.08022678 0.78766315 3.15065259 0 0 Z " fill="#FAFAFA" transform="translate(199,193)"/>
<path d="M0 0 C0.33 0 0.66 0 1 0 C1 7.59 1 15.18 1 23 C1.99 22.67 2.98 22.34 4 22 C4 21.34 4 20.68 4 20 C11.75 18.875 11.75 18.875 14 20 C14 20.66 14 21.32 14 22 C15.45823212 22.0270043 16.91660675 22.04639787 18.375 22.0625 C19.59316406 22.07990234 19.59316406 22.07990234 20.8359375 22.09765625 C23.04937142 22.14466334 23.04937142 22.14466334 25 21 C25 22.32 25 23.64 25 25 C16.75 25 8.5 25 0 25 C0 16.75 0 8.5 0 0 Z " fill="#7A8CB5" transform="translate(61,189)"/>
<path d="M0 0 C2.94851556 2.34488245 3.93035506 3.42333987 4.390625 7.234375 C4.26041667 10.48958333 4.13020833 13.74479167 4 17 C-0.95 17 -5.9 17 -11 17 C-11.33 16.01 -11.66 15.02 -12 14 C-10.5625 11.3125 -10.5625 11.3125 -9 9 C-10.32 9 -11.64 9 -13 9 C-13 8.34 -13 7.68 -13 7 C-13.66 7 -14.32 7 -15 7 C-15 5.68 -15 4.36 -15 3 C-13 4 -13 4 -10 6 C-7.66800612 6.07905064 -5.33167378 6.08798769 -3 6 C-3.78375 6.7425 -4.5675 7.485 -5.375 8.25 C-8.23128627 10.97242945 -8.23128627 10.97242945 -10 15 C-6.04 15 -2.08 15 2 15 C1.855625 13.081875 1.71125 11.16375 1.5625 9.1875 C1.48128906 8.10855469 1.40007812 7.02960938 1.31640625 5.91796875 C1.09787539 2.94010095 1.09787539 2.94010095 0 0 Z " fill="#474D5B" transform="translate(184,195)"/>
<path d="M0 0 C0.99 0.33 1.98 0.66 3 1 C3 3.64 3 6.28 3 9 C3.66 9 4.32 9 5 9 C5.33 7.68 5.66 6.36 6 5 C6.99 5.33 7.98 5.66 9 6 C8.67 6.99 8.34 7.98 8 9 C7.34 9 6.68 9 6 9 C5.67 12.63 5.34 16.26 5 20 C0.05 20 -4.9 20 -10 20 C-9.67 18.35 -9.34 16.7 -9 15 C-8.01 16.485 -8.01 16.485 -7 18 C-4.79274927 18.36362818 -4.79274927 18.36362818 -2.375 18.1875 C-1.55773437 18.16042969 -0.74046875 18.13335937 0.1015625 18.10546875 C1.04128906 18.05326172 1.04128906 18.05326172 2 18 C1.67 17.34 1.34 16.68 1 16 C-1.32156597 15.59270772 -3.6568787 15.25561323 -6 15 C-6 14.67 -6 14.34 -6 14 C-5.04287109 13.92652344 -5.04287109 13.92652344 -4.06640625 13.8515625 C-2.82697266 13.73941406 -2.82697266 13.73941406 -1.5625 13.625 C-0.73878906 13.55539063 0.08492187 13.48578125 0.93359375 13.4140625 C1.95646484 13.20910156 1.95646484 13.20910156 3 13 C3.33 12.34 3.66 11.68 4 11 C3.34 11 2.68 11 2 11 C1.34 9.68 0.68 8.36 0 7 C-0.99 8.32 -1.98 9.64 -3 11 C-3.99 8.69 -4.98 6.38 -6 4 C-5.34 4 -4.68 4 -4 4 C-3.34 4.66 -2.68 5.32 -2 6 C-1.34 4.02 -0.68 2.04 0 0 Z " fill="#5F5F5F" transform="translate(103,191)"/>
<path d="M0 0 C0.66 0.33 1.32 0.66 2 1 C2 2.65 2 4.3 2 6 C2.66 6 3.32 6 4 6 C4 6.66 4 7.32 4 8 C-0.95 8 -5.9 8 -11 8 C-11 7.34 -11 6.68 -11 6 C-10.34 6 -9.68 6 -9 6 C-9 4.35 -9 2.7 -9 1 C-6.01405576 -0.49297212 -3.29146376 -0.11755228 0 0 Z " fill="#8F939C" transform="translate(104,21)"/>
<path d="M0 0 C0.9796875 -0.01675781 1.959375 -0.03351562 2.96875 -0.05078125 C4.22171875 0.12904297 4.22171875 0.12904297 5.5 0.3125 C7.5 3.3125 7.5 3.3125 7.5 6.3125 C2.22 6.3125 -3.06 6.3125 -8.5 6.3125 C-7.04107339 0.47679357 -5.68290287 0.02243251 0 0 Z " fill="#282828" transform="translate(22.5,21.6875)"/>
<path d="M0 0 C0.33 1.32 0.66 2.64 1 4 C-0.32 3.67 -1.64 3.34 -3 3 C-3 4.65 -3 6.3 -3 8 C-2.236875 8.12375 -1.47375 8.2475 -0.6875 8.375 C2 9 2 9 5 11 C5 11.66 5 12.32 5 13 C6.32 13 7.64 13 9 13 C9 13.66 9 14.32 9 15 C5.37 15 1.74 15 -2 15 C-2 13.68 -2 12.36 -2 11 C-2.99 11 -3.98 11 -5 11 C-7 8 -7 8 -6.75 4.375 C-6.5025 3.26125 -6.255 2.1475 -6 1 C-4 0 -4 0 0 0 Z " fill="#8E8E8E" transform="translate(123,12)"/>
<path d="M0 0 C1 2 1 2 1 6 C1.99 6.33 2.98 6.66 4 7 C3.67 5.35 3.34 3.7 3 2 C3.99 1.67 4.98 1.34 6 1 C6.33 2.65 6.66 4.3 7 6 C7.99 6.33 8.98 6.66 10 7 C10 8.32 10 9.64 10 11 C8.02 11.99 6.04 12.98 4 14 C3.67 13.67 3.34 13.34 3 13 C0.66702567 12.95907063 -1.66705225 12.95758277 -4 13 C-4 12.67 -4 12.34 -4 12 C-2.35 11.67 -0.7 11.34 1 11 C0.505 10.195625 0.505 10.195625 0 9.375 C-1.23696723 6.43720283 -1.21056341 4.15845117 -1 1 C-0.67 0.67 -0.34 0.34 0 0 Z " fill="#626468" transform="translate(69,196)"/>
<path d="M0 0 C0.99 0.33 1.98 0.66 3 1 C3 1.99 3 2.98 3 4 C4.32 4.66 5.64 5.32 7 6 C6.67 6.66 6.34 7.32 6 8 C4.68 7.34 3.36 6.68 2 6 C2.33 8.31 2.66 10.62 3 13 C0.69 13 -1.62 13 -4 13 C-4.6875 10.75 -4.6875 10.75 -5 8 C-3.6875 5.6875 -3.6875 5.6875 -2 4 C-1.34 4 -0.68 4 0 4 C0 2.68 0 1.36 0 0 Z " fill="#979797" transform="translate(151,190)"/>
<path d="M0 0 C2 2 2 2 2 4 C2.66 4.66 3.32 5.32 4 6 C1.375 11.75 1.375 11.75 -2 14 C-5.51724138 13.48275862 -5.51724138 13.48275862 -7 12 C-7.04063832 10.33382885 -7.042721 8.66611905 -7 7 C-6.38125 6.9175 -5.7625 6.835 -5.125 6.75 C-2.83911206 6.19416524 -2.83911206 6.19416524 -1.8125 4.0625 C-1.544375 3.381875 -1.27625 2.70125 -1 2 C-0.67 1.34 -0.34 0.68 0 0 Z " fill="#585858" transform="translate(126,8)"/>
<path d="M0 0 C1.47906892 -0.02689216 2.95827483 -0.04634621 4.4375 -0.0625 C5.26121094 -0.07410156 6.08492187 -0.08570313 6.93359375 -0.09765625 C9 0 9 0 10 1 C10.04080783 2.99958364 10.04254356 5.00045254 10 7 C6.37 7 2.74 7 -1 7 C-0.67 4.69 -0.34 2.38 0 0 Z " fill="#0B0B0B" transform="translate(200,16)"/>
<path d="M0 0 C1.9375 0.0625 1.9375 0.0625 4 1 C5.1875 3.9375 5.1875 3.9375 6 7 C6.33 7.66 6.66 8.32 7 9 C6.01 9 5.02 9 4 9 C3.67 9.99 3.34 10.98 3 12 C3 11.01 3 10.02 3 9 C2.01 9 1.02 9 0 9 C-0.33 10.65 -0.66 12.3 -1 14 C-1.33 13.34 -1.66 12.68 -2 12 C-1.67 11.01 -1.34 10.02 -1 9 C-1.99 8.67 -2.98 8.34 -4 8 C-3.34 7.01 -2.68 6.02 -2 5 C-1.64830932 3.67139075 -1.31229724 2.33841672 -1 1 C-0.67 0.67 -0.34 0.34 0 0 Z " fill="#545454" transform="translate(125,166)"/>
<path d="M0 0 C1.32 1.32 2.64 2.64 4 4 C4.99 2.68 5.98 1.36 7 0 C7.33 1.98 7.66 3.96 8 6 C8.66 6 9.32 6 10 6 C9.67 6.99 9.34 7.98 9 9 C5.37 9 1.74 9 -2 9 C-2.33 8.01 -2.66 7.02 -3 6 C-2.34 6 -1.68 6 -1 6 C-0.67 4.02 -0.34 2.04 0 0 Z " fill="#F5F5F6" transform="translate(97,196)"/>
<path d="M0 0 C2.0625 0.4375 2.0625 0.4375 4 1 C3.67 1.66 3.34 2.32 3 3 C2.34 3 1.68 3 1 3 C0.67 4.32 0.34 5.64 0 7 C1.98 7 3.96 7 6 7 C6.33 7.66 6.66 8.32 7 9 C4.69 9 2.38 9 0 9 C-0.103125 9.763125 -0.20625 10.52625 -0.3125 11.3125 C-1 14 -1 14 -4 17 C-0.37 17.33 3.26 17.66 7 18 C7.33 17.34 7.66 16.68 8 16 C8.33 16.99 8.66 17.98 9 19 C4.05 19 -0.9 19 -6 19 C-4.96532992 14.8613197 -3.43050464 12.44974852 -1 9 C-1.99 8.67 -2.98 8.34 -4 8 C-3.34 7.01 -2.68 6.02 -2 5 C-1.64830932 3.67139075 -1.31229724 2.33841672 -1 1 C-0.67 0.67 -0.34 0.34 0 0 Z " fill="#474747" transform="translate(73,166)"/>
<path d="M0 0 C2.4375 0.1875 2.4375 0.1875 5 1 C6.375 2.8125 6.375 2.8125 7 5 C6.625 7.25 6.625 7.25 6 9 C4.35 9.33 2.7 9.66 1 10 C-0.5625 8.3125 -0.5625 8.3125 -2 6 C-1.58974359 1.58974359 -1.58974359 1.58974359 0 0 Z " fill="#F6F6F6" transform="translate(119,196)"/>
<path d="M0 0 C1.65 0.33 3.3 0.66 5 1 C5.625 3.3125 5.625 3.3125 6 6 C5.01 7.485 5.01 7.485 4 9 C0.875 9.1875 0.875 9.1875 -2 9 C-2.6875 7.3125 -2.6875 7.3125 -3 5 C-1.5625 2.25 -1.5625 2.25 0 0 Z " fill="#F7F7F7" transform="translate(130,196)"/>
<path d="M0 0 C2.97 0 5.94 0 9 0 C9 2.31 9 4.62 9 7 C6.03 7 3.06 7 0 7 C0 4.69 0 2.38 0 0 Z " fill="#F6F6F6" transform="translate(18,199)"/>
<path d="M0 0 C2.33829125 1.02300242 3.55893291 1.75132219 5 3.875 C4.6875 6.5625 4.6875 6.5625 4 8.875 C2.68 8.545 1.36 8.215 0 7.875 C-0.33 6.555 -0.66 5.235 -1 3.875 C-1.66 3.875 -2.32 3.875 -3 3.875 C-2.67 5.525 -2.34 7.175 -2 8.875 C-3.32 8.545 -4.64 8.215 -6 7.875 C-5.63287028 5.15824005 -5.27255401 3.26436287 -3.6875 1 C-2 -0.125 -2 -0.125 0 0 Z " fill="#F1F1F1" transform="translate(75,194.125)"/>
<path d="M0 0 C0 1.32 0 2.64 0 4 C-4.95 4 -9.9 4 -15 4 C-14.67 2.68 -14.34 1.36 -14 0 C-12.04235617 -0.19456705 -10.08384679 -0.38044247 -8.125 -0.5625 C-6.48917969 -0.71912109 -6.48917969 -0.71912109 -4.8203125 -0.87890625 C-2 -1 -2 -1 0 0 Z " fill="#010102" transform="translate(212,24)"/>
<path d="M0 0 C0.33 0.99 0.66 1.98 1 3 C-6 3 -13 3 -20 3 C-18 0 -18 0 -15.625 -0.75 C-10.36421364 -1.11281285 -5.23467961 -0.5505731 0 0 Z " fill="#0C0E13" transform="translate(162,25)"/>
<path d="M0 0 C3.3 0 6.6 0 10 0 C10 1.98 10 3.96 10 6 C6.7 6 3.4 6 0 6 C0 4.02 0 2.04 0 0 Z " fill="#000000" transform="translate(17,16)"/>
<path d="M0 0 C0.99 0 1.98 0 3 0 C3.45375 0.928125 3.9075 1.85625 4.375 2.8125 C5.9421633 6.03921389 5.9421633 6.03921389 8 9 C3.71 9 -0.58 9 -5 9 C-4.360625 8.071875 -3.72125 7.14375 -3.0625 6.1875 C-0.91377907 3.15780057 -0.91377907 3.15780057 0 0 Z " fill="#F8F8F9" transform="translate(99,175)"/>
<path d="M0 0 C0.99 0 1.98 0 3 0 C3.45375 0.928125 3.9075 1.85625 4.375 2.8125 C5.9421633 6.03921389 5.9421633 6.03921389 8 9 C3.71 9 -0.58 9 -5 9 C-4.360625 8.071875 -3.72125 7.14375 -3.0625 6.1875 C-0.91377907 3.15780057 -0.91377907 3.15780057 0 0 Z " fill="#F8F8F8" transform="translate(151,175)"/>
<path d="M0 0 C0.99 0 1.98 0 3 0 C3.45375 0.928125 3.9075 1.85625 4.375 2.8125 C5.9421633 6.03921389 5.9421633 6.03921389 8 9 C3.71 9 -0.58 9 -5 9 C-3.68 7.35 -2.36 5.7 -1 4 C-0.22166466 1.81785432 -0.22166466 1.81785432 0 0 Z " fill="#F9F9F9" transform="translate(203,175)"/>
<path d="M0 0 C0.66 0.99 1.32 1.98 2 3 C-5 3 -12 3 -19 3 C-18.67 2.01 -18.34 1.02 -18 0 C-12.0327368 -1.19345264 -5.96486032 -1.38487636 0 0 Z " fill="#151515" transform="translate(83,25)"/>
<path d="M0 0 C0.99 0 1.98 0 3 0 C3.45375 0.928125 3.9075 1.85625 4.375 2.8125 C5.9421633 6.03921389 5.9421633 6.03921389 8 9 C4.04 9 0.08 9 -4 9 C-4 8.34 -4 7.68 -4 7 C-3.34 7 -2.68 7 -2 7 C-1.34 4.69 -0.68 2.38 0 0 Z " fill="#F8F8F8" transform="translate(177,175)"/>
<path d="M0 0 C0.99 0 1.98 0 3 0 C3.45375 0.928125 3.9075 1.85625 4.375 2.8125 C5.9421633 6.03921389 5.9421633 6.03921389 8 9 C4.04 9 0.08 9 -4 9 C-4 8.34 -4 7.68 -4 7 C-3.34 7 -2.68 7 -2 7 C-1.34 4.69 -0.68 2.38 0 0 Z " fill="#F7F7F8" transform="translate(125,175)"/>
<path d="M0 0 C0.99 0.33 1.98 0.66 3 1 C4.1875 4.0625 4.1875 4.0625 5 7 C5.66 7 6.32 7 7 7 C7 7.66 7 8.32 7 9 C3.04 9 -0.92 9 -5 9 C-4.360625 8.071875 -3.72125 7.14375 -3.0625 6.1875 C-0.91377907 3.15780057 -0.91377907 3.15780057 0 0 Z " fill="#F9F9F9" transform="translate(47,175)"/>
<path d="M0 0 C0.66 0 1.32 0 2 0 C5 4.38461538 5 4.38461538 5 7 C5.66 7 6.32 7 7 7 C7 7.66 7 8.32 7 9 C3.04 9 -0.92 9 -5 9 C-4.360625 8.071875 -3.72125 7.14375 -3.0625 6.1875 C-0.91377907 3.15780057 -0.91377907 3.15780057 0 0 Z " fill="#FBFBFB" transform="translate(73,175)"/>
<path d="M0 0 C0.66 0 1.32 0 2 0 C2.268125 0.969375 2.53625 1.93875 2.8125 2.9375 C3.204375 3.948125 3.59625 4.95875 4 6 C4.99 6.33 5.98 6.66 7 7 C7 7.66 7 8.32 7 9 C3.04 9 -0.92 9 -5 9 C-4.360625 8.071875 -3.72125 7.14375 -3.0625 6.1875 C-0.91377907 3.15780057 -0.91377907 3.15780057 0 0 Z " fill="#FBFBFB" transform="translate(21,175)"/>
<path d="M0 0 C2.97 0 5.94 0 9 0 C9 0.66 9 1.32 9 2 C9.66 2 10.32 2 11 2 C11 1.34 11 0.68 11 0 C11.99 0.33 12.98 0.66 14 1 C13.34 1 12.68 1 12 1 C12 1.66 12 2.32 12 3 C10.68 3 9.36 3 8 3 C8 2.34 8 1.68 8 1 C7.34 1 6.68 1 6 1 C6 1.66 6 2.32 6 3 C5.01 3 4.02 3 3 3 C3 2.34 3 1.68 3 1 C2.34 1 1.68 1 1 1 C1.4100567 3.07935207 1.4100567 3.07935207 3 5 C5.69658452 5.68790422 8.2017019 5.81946464 11 6 C11 6.33 11 6.66 11 7 C8.36 7 5.72 7 3 7 C3 9.31 3 11.62 3 14 C2.34 14 1.68 14 1 14 C0.67 9.38 0.34 4.76 0 0 Z " fill="#424854" transform="translate(15,192)"/>
<path d="M0 0 C0.33 0.66 0.66 1.32 1 2 C2.32 2 3.64 2 5 2 C5.33 1.34 5.66 0.68 6 0 C6 0.66 6 1.32 6 2 C7.32 2 8.64 2 10 2 C10 1.34 10 0.68 10 0 C10.66 0 11.32 0 12 0 C11.49396008 2.16874252 11.00016187 3.99967627 10 6 C3.9453125 6.1953125 3.9453125 6.1953125 2 6 C1.34 5.34 0.68 4.68 0 4 C0 2.68 0 1.36 0 0 Z " fill="#D1D1D1" transform="translate(199,193)"/>
<path d="M0 0 C1 2 1 2 0 7 C-4.95 7 -9.9 7 -15 7 C-14.67 5.35 -14.34 3.7 -14 2 C-13.67 3.32 -13.34 4.64 -13 6 C-9.37 6 -5.74 6 -2 6 C-3.65 5.67 -5.3 5.34 -7 5 C-7 4.01 -7 3.02 -7 2 C-4.69 1.34 -2.38 0.68 0 0 Z " fill="#474747" transform="translate(134,21)"/>
<path d="M0 0 C0.66 0 1.32 0 2 0 C2 0.66 2 1.32 2 2 C2.99 2 3.98 2 5 2 C5 1.34 5 0.68 5 0 C5.66 0 6.32 0 7 0 C7 0.66 7 1.32 7 2 C8.32 2 9.64 2 11 2 C11.33 1.34 11.66 0.68 12 0 C11.67 1.65 11.34 3.3 11 5 C9.54207116 5.05399736 8.08357288 5.09279177 6.625 5.125 C5.81289063 5.14820313 5.00078125 5.17140625 4.1640625 5.1953125 C2 5 2 5 0 3 C0 2.01 0 1.02 0 0 Z " fill="#DEDEDF" transform="translate(16,193)"/>
<path d="M0 0 C0 1.98 0 3.96 0 6 C-4.95 6 -9.9 6 -15 6 C-14.67 4.35 -14.34 2.7 -14 1 C-13.01 2.485 -13.01 2.485 -12 4 C-9.79274927 4.36362818 -9.79274927 4.36362818 -7.375 4.1875 C-6.55773437 4.16042969 -5.74046875 4.13335937 -4.8984375 4.10546875 C-4.27195312 4.07066406 -3.64546875 4.03585938 -3 4 C-3.33 3.34 -3.66 2.68 -4 2 C-6.32156597 1.59270772 -8.6568787 1.25561323 -11 1 C-11 0.67 -11 0.34 -11 0 C-9.54263913 -0.19491452 -8.08405407 -0.38069358 -6.625 -0.5625 C-5.81289062 -0.66691406 -5.00078125 -0.77132812 -4.1640625 -0.87890625 C-2 -1 -2 -1 0 0 Z " fill="#595858" transform="translate(108,205)"/>
<path d="M0 0 C1.32 0.66 2.64 1.32 4 2 C3.42655063 4.86724686 3.1385485 5.8614515 1 8 C-1.125 7.625 -1.125 7.625 -3 7 C-1.125 1.125 -1.125 1.125 0 0 Z " fill="#0C0C0C" transform="translate(131,14)"/>
<path d="M0 0 C3.63 0 7.26 0 11 0 C11.33 0.99 11.66 1.98 12 3 C7.71 3 3.42 3 -1 3 C-0.67 2.01 -0.34 1.02 0 0 Z " fill="#F6F6F7" transform="translate(199,207)"/>
<path d="M0 0 C3.63 0 7.26 0 11 0 C11.33 0.99 11.66 1.98 12 3 C7.71 3 3.42 3 -1 3 C-0.67 2.01 -0.34 1.02 0 0 Z " fill="#F5F5F6" transform="translate(17,207)"/>
<path d="M0 0 C2 3 2 3 2 5 C2.66 5.66 3.32 6.32 4 7 C3.01 9.64 2.02 12.28 1 15 C-0.52299523 12.06279492 -1.80100302 9.0831351 -3 6 C-2.34 5.67 -1.68 5.34 -1 5 C-0.34444881 2.47266765 -0.34444881 2.47266765 0 0 Z " fill="#505052" transform="translate(126,190)"/>
<path d="M0 0 C2.97 0 5.94 0 9 0 C9.33 1.32 9.66 2.64 10 4 C7.36 4.33 4.72 4.66 2 5 C1.34 3.35 0.68 1.7 0 0 Z " fill="#787879" transform="translate(69,20)"/>
<path d="M0 0 C1.9375 0.6875 1.9375 0.6875 4 2 C4.75 4.625 4.75 4.625 5 7 C3.125 7.625 3.125 7.625 1 8 C-1 6 -1 6 -1.1875 3.4375 C-1 1 -1 1 0 0 Z " fill="#0B0B0B" transform="translate(120,14)"/>
<path d="M0 0 C1.32 1.32 2.64 2.64 4 4 C3 5 3 5 0.05859375 5.09765625 C-1.73384766 5.08025391 -1.73384766 5.08025391 -3.5625 5.0625 C-5.35880859 5.04896484 -5.35880859 5.04896484 -7.19140625 5.03515625 C-8.11824219 5.02355469 -9.04507813 5.01195312 -10 5 C-9.67 4.34 -9.34 3.68 -9 3 C-6.66752239 2.66073053 -4.33414529 2.32759934 -2 2 C-1.34 1.34 -0.68 0.68 0 0 Z " fill="#F1F1F1" transform="translate(152,209)"/>
<path d="M0 0 C0.9590625 0.2784375 0.9590625 0.2784375 1.9375 0.5625 C2.9584375 0.7790625 2.9584375 0.7790625 4 1 C4.33 0.67 4.66 0.34 5 0 C6.32 0 7.64 0 9 0 C9.33 1.32 9.66 2.64 10 4 C6.37 4 2.74 4 -1 4 C-0.67 2.68 -0.34 1.36 0 0 Z " fill="#FAFAFA" transform="translate(122,206)"/>
<path d="M0 0 C2.86724686 0.57344937 3.8614515 0.8614515 6 3 C5.625 5.625 5.625 5.625 5 8 C3.68 7.67 2.36 7.34 1 7 C0.67 4.69 0.34 2.38 0 0 Z " fill="#F2F2F3" transform="translate(152,195)"/>
<path d="M0 0 C0.66 0.33 1.32 0.66 2 1 C3.53668865 1.22467831 5.07968054 1.40796805 6.625 1.5625 C7.44226563 1.64628906 8.25953125 1.73007812 9.1015625 1.81640625 C9.72804687 1.87699219 10.35453125 1.93757813 11 2 C11 2.33 11 2.66 11 3 C-3.78132118 4.33257403 -3.78132118 4.33257403 -10 3 C-10 2.67 -10 2.34 -10 2 C-9.04287109 1.90912109 -9.04287109 1.90912109 -8.06640625 1.81640625 C-6.82697266 1.69072266 -6.82697266 1.69072266 -5.5625 1.5625 C-4.73878906 1.48128906 -3.91507813 1.40007813 -3.06640625 1.31640625 C-1.01337975 1.21069185 -1.01337975 1.21069185 0 0 Z " fill="#697CAB" transform="translate(152,26)"/>
<path d="M0 0 C0.33 1.32 0.66 2.64 1 4 C-0.32 3.67 -1.64 3.34 -3 3 C-3.66 4.98 -4.32 6.96 -5 9 C-5.66 8.67 -6.32 8.34 -7 8 C-6.74438677 5.6568787 -6.40729228 3.32156597 -6 1 C-4 0 -4 0 0 0 Z " fill="#888888" transform="translate(123,12)"/>
<path d="M0 0 C0 3 0 3 -1.625 4.75 C-4.77514641 6.40797179 -6.62025695 5.84493576 -10 5 C-10 4.01 -10 3.02 -10 2 C-9.04287109 1.90912109 -9.04287109 1.90912109 -8.06640625 1.81640625 C-6.82697266 1.69072266 -6.82697266 1.69072266 -5.5625 1.5625 C-4.73878906 1.48128906 -3.91507813 1.40007812 -3.06640625 1.31640625 C-1.01337975 1.21069185 -1.01337975 1.21069185 0 0 Z " fill="#6A6A6A" transform="translate(51,199)"/>
<path d="M0 0 C1.98 0.495 1.98 0.495 4 1 C4 2.98 4 4.96 4 7 C2.35 7 0.7 7 -1 7 C-0.67 6.01 -0.34 5.02 0 4 C-0.33 3.34 -0.66 2.68 -1 2 C-0.67 1.34 -0.34 0.68 0 0 Z " fill="#EBEBEC" transform="translate(203,167)"/>
<path d="M0 0 C1.9375 0.3125 1.9375 0.3125 4 1 C4.33 1.99 4.66 2.98 5 4 C1.37 4 -2.26 4 -6 4 C-5.67 3.01 -5.34 2.02 -5 1 C-3.02 1.66 -1.04 2.32 1 3 C0.67 2.01 0.34 1.02 0 0 Z " fill="#FBFBFC" transform="translate(101,206)"/>
<path d="M0 0 C0.66 0.33 1.32 0.66 2 1 C2 1.66 2 2.32 2 3 C1.34 3 0.68 3 0 3 C0.33 4.65 0.66 6.3 1 8 C-0.32 7.67 -1.64 7.34 -3 7 C-2.25 2.25 -2.25 2.25 0 0 Z " fill="#F9F9F9" transform="translate(72,195)"/>
<path d="M0 0 C1.98 0.495 1.98 0.495 4 1 C4 2.98 4 4.96 4 7 C2.35 7 0.7 7 -1 7 C-0.67 6.01 -0.34 5.02 0 4 C-0.33 3.34 -0.66 2.68 -1 2 C-0.67 1.34 -0.34 0.68 0 0 Z " fill="#EAEAEB" transform="translate(99,167)"/>
<path d="M0 0 C0.99 0 1.98 0 3 0 C2.979375 0.78375 2.95875 1.5675 2.9375 2.375 C2.81315937 4.98114961 2.81315937 4.98114961 4 7 C2.35 7 0.7 7 -1 7 C-1.04254356 5.00045254 -1.04080783 2.99958364 -1 1 C-0.67 0.67 -0.34 0.34 0 0 Z " fill="#ECECED" transform="translate(47,167)"/>
<path d="M0 0 C3.625 -0.1875 3.625 -0.1875 7 0 C7 0.99 7 1.98 7 3 C4.03 3 1.06 3 -2 3 C-1.34 2.01 -0.68 1.02 0 0 Z " fill="#80807F" transform="translate(144,208)"/>
<path d="M0 0 C0.99 0.33 1.98 0.66 3 1 C3 2.98 3 4.96 3 7 C1.35 7 -0.3 7 -2 7 C-1.67 6.01 -1.34 5.02 -1 4 C-1 3.01 -1 2.02 -1 1 C-0.67 0.67 -0.34 0.34 0 0 Z " fill="#EEEEEE" transform="translate(152,167)"/>
<path d="M0 0 C2.97 0 5.94 0 9 0 C9 0.99 9 1.98 9 3 C8.2575 2.814375 7.515 2.62875 6.75 2.4375 C4.05009037 2.00796892 2.55368923 2.14877026 0 3 C0 2.01 0 1.02 0 0 Z " fill="#121212" transform="translate(96,23)"/>
<path d="M0 0 C3.61139896 2.55440415 3.61139896 2.55440415 5 5 C5.14751428 8.75107732 4.65257202 12.31070671 4 16 C3.67 16 3.34 16 3 16 C2.86722656 15.09636719 2.73445312 14.19273438 2.59765625 13.26171875 C2.42105469 12.08222656 2.24445313 10.90273438 2.0625 9.6875 C1.88847656 8.51574219 1.71445313 7.34398437 1.53515625 6.13671875 C1.07906969 2.98358597 1.07906969 2.98358597 0 0 Z " fill="#B1B1B1" transform="translate(182,10)"/>
<path d="M0 0 C1.98 0.495 1.98 0.495 4 1 C4 2.65 4 4.3 4 6 C2.35 6 0.7 6 -1 6 C-0.67 5.01 -0.34 4.02 0 3 C0 2.01 0 1.02 0 0 Z " fill="#EDEEEE" transform="translate(125,168)"/>
<path d="M0 0 C2.97 0.99 5.94 1.98 9 3 C9 3.66 9 4.32 9 5 C5.625 4.75 5.625 4.75 2 4 C1.34 2.68 0.68 1.36 0 0 Z " fill="#9A9A9A" transform="translate(93,204)"/>
</svg>
