<svg xmlns="http://www.w3.org/2000/svg" viewBox="0 0 800 500" preserveAspectRatio="xMidYMid slice">
  <defs>
    <radialGradient id="pcore" cx="55%" cy="55%" r="35%">
      <stop offset="0%" stop-color="#ffffff" stop-opacity="0.95"/>
      <stop offset="25%" stop-color="#ff9be8" stop-opacity="0.9"/>
      <stop offset="55%" stop-color="#c33aff" stop-opacity="0.85"/>
      <stop offset="90%" stop-color="#5a0eb0" stop-opacity="0.0"/>
    </radialGradient>
    <radialGradient id="pglow" cx="55%" cy="55%" r="55%">
      <stop offset="0%" stop-color="#ff4dc8" stop-opacity="0.55"/>
      <stop offset="60%" stop-color="#8b1ea6" stop-opacity="0.18"/>
      <stop offset="100%" stop-color="#06020e" stop-opacity="0"/>
    </radialGradient>
    <filter id="pblur"><feGaussianBlur stdDeviation="2"/></filter>
    <filter id="pblur2"><feGaussianBlur stdDeviation="40"/></filter>
  </defs>
  <rect width="800" height="500" fill="#08050f"/>
  <ellipse cx="440" cy="275" rx="380" ry="240" fill="url(#pglow)"/>
  <g filter="url(#pblur)" stroke-width="1.2" fill="none" opacity="0.9">
    <path stroke="#ffb6f0" d="M440 275 q -40 -90 -160 -130 q 30 80 -10 130"/>
    <path stroke="#ff75d8" d="M440 275 q 60 -110 200 -120 q -80 40 -60 130"/>
    <path stroke="#c890ff" d="M440 275 q 100 80 220 60 q -120 30 -150 110"/>
    <path stroke="#9b6bff" d="M440 275 q -110 60 -220 110 q 100 -10 160 -180"/>
    <path stroke="#ffcfee" d="M440 275 q 20 -70 70 -120"/>
    <path stroke="#ff8de4" d="M440 275 q -50 60 -110 100"/>
    <path stroke="#a48bff" d="M440 275 q 80 -30 150 30"/>
    <path stroke="#d4b0ff" d="M440 275 q 40 80 -30 140"/>
  </g>
  <ellipse cx="440" cy="275" rx="120" ry="85" fill="url(#pcore)"/>
  <ellipse cx="440" cy="275" rx="40" ry="28" fill="#ffffff" opacity="0.85" filter="url(#pblur)"/>
</svg>
